<svg preserveAspectRatio="none" width="100%" height="100%" overflow="visible" style="display: block;" viewBox="0 0 24 24" fill="none" xmlns="http://www.w3.org/2000/svg">
<g id="svg12720974276" clip-path="url(#clip0_0_15)">
<rect width="24" height="24" fill="white"/>
<rect width="24" height="24" fill="#151515"/>
<g id="Vector">
<path d="M0 0V24H24V0H0ZM17.443 17.847C11.903 23.033 4.96 24.621 1.936 21.391C-1.088 18.161 0.952 11.339 6.492 6.151C12.032 0.964 18.975 -0.624 21.999 2.607C25.023 5.836 22.983 12.659 17.443 17.847Z" fill="white"/>
<path d="M0 0V24H24V0H0ZM17.443 17.847C11.903 23.033 4.96 24.621 1.936 21.391C-1.088 18.161 0.952 11.339 6.492 6.151C12.032 0.964 18.975 -0.624 21.999 2.607C25.023 5.836 22.983 12.659 17.443 17.847Z" fill="#151515"/>
</g>
</g>
<defs>
<clipPath id="clip0_0_15">
<rect width="24" height="24" fill="white"/>
</clipPath>
</defs>
</svg>
