<svg preserveAspectRatio="none" width="100%" height="100%" overflow="visible" style="display: block;" viewBox="0 0 58.667 11" fill="none" xmlns="http://www.w3.org/2000/svg">
<g id="Group">
<path id="Vector" d="M0 0H11V11H0V0ZM11.917 0H22.917V11H11.917V0ZM23.833 0H34.833V11H23.833V0ZM35.75 0H46.75V11H35.75V0ZM47.667 0H58.667V11H47.667V0Z" fill="var(--fill-0, #00B67A)"/>
<path id="Vector_2" d="M5.5 7.414L7.173 6.99L7.872 9.144L5.5 7.414ZM9.35 4.629H6.405L5.5 1.856L4.595 4.629H1.65L4.033 6.348L3.128 9.121L5.511 7.402L6.978 6.348L9.35 4.629ZM17.417 7.414L19.09 6.99L19.789 9.144L17.417 7.414ZM21.267 4.629H18.322L17.417 1.856L16.511 4.629H13.567L15.95 6.348L15.045 9.121L17.428 7.402L18.895 6.348L21.267 4.629ZM29.333 7.414L31.006 6.99L31.705 9.144L29.333 7.414ZM33.183 4.629H30.239L29.333 1.856L28.428 4.629H25.483L27.867 6.348L26.961 9.121L29.345 7.402L30.811 6.348L33.183 4.629ZM41.25 7.414L42.923 6.99L43.622 9.144L41.25 7.414ZM45.1 4.629H42.155L41.25 1.856L40.345 4.629H37.4L39.783 6.348L38.878 9.121L41.261 7.402L42.728 6.348L45.1 4.629ZM53.167 7.414L54.84 6.99L55.539 9.144L53.167 7.414ZM57.017 4.629H54.072L53.167 1.856L52.261 4.629H49.317L51.7 6.348L50.795 9.121L53.178 7.402L54.645 6.348L57.017 4.629Z" fill="var(--fill-0, #151515)"/>
</g>
</svg>
